<?xml version="1.0" standalone="no"?>
<!DOCTYPE svg PUBLIC "-//W3C//DTD SVG 20010904//EN"
 "http://www.w3.org/TR/2001/REC-SVG-20010904/DTD/svg10.dtd">
<svg version="1.0" xmlns="http://www.w3.org/2000/svg"
 width="1091.903204pt" height="228.086761pt" viewBox="0 0 1091.903204 228.086761"
 preserveAspectRatio="xMidYMid meet">
<metadata>
Created by potrace 1.12, written by Peter Selinger 2001-2015
</metadata>
<g transform="translate(-93.972716,268.044287) scale(0.100000,-0.100000)"
fill="#000000" stroke="none">
<path d="M1098 2670 c-65 -19 -138 -86 -123 -110 4 -6 126 -10 314 -10 262 0
310 2 321 15 15 18 51 20 68 3 7 -7 12 -24 12 -38 0 -14 -5 -31 -12 -38 -17
-17 -53 -15 -68 3 -11 13 -60 15 -329 15 -233 0 -320 -3 -329 -12 -15 -15 -17
-495 -2 -566 13 -60 60 -118 114 -143 38 -17 75 -19 489 -19 l448 0 24 -25
c23 -22 25 -31 25 -127 0 -78 -4 -109 -16 -126 l-15 -22 -498 0 c-384 0 -501
-3 -514 -13 -15 -11 -17 -29 -15 -147 l3 -135 628 -3 c611 -2 629 -2 667 18
56 29 88 67 106 128 13 42 15 102 12 325 -3 259 -4 274 -25 314 -25 47 -71 84
-122 102 -23 7 -173 11 -477 11 -533 0 -484 -15 -484 148 0 78 4 114 14 128
14 18 34 19 528 24 l513 5 0 150 0 150 -615 2 c-338 1 -627 -2 -642 -7z m710
-142 l-3 -123 -25 0 -25 0 -3 123 -3 122 31 0 31 0 -3 -122z m134 62 c23 -33
45 -60 49 -60 5 0 9 26 11 58 3 56 3 57 33 57 l30 0 0 -120 0 -120 -27 -3
c-23 -3 -35 6 -74 57 -26 34 -51 61 -55 61 -4 0 -9 -26 -11 -57 -3 -54 -5 -58
-28 -58 l-25 0 -3 123 -3 122 30 0 c26 0 37 -9 73 -60z m366 48 c7 -7 12 -25
12 -40 0 -24 -4 -28 -30 -28 -16 0 -30 5 -30 11 0 6 -19 9 -47 7 l-48 -3 0
-60 0 -60 43 -3 c43 -3 58 11 22 21 -14 3 -20 14 -20 31 0 25 2 26 55 26 l55
0 0 -58 c0 -32 -5 -63 -12 -70 -15 -15 -171 -16 -199 -2 -17 10 -19 22 -19
113 0 67 4 107 12 115 16 16 190 16 206 0z"/>
<path d="M2455 2668 c-3 -7 -4 -346 -3 -753 l3 -740 80 0 80 0 3 206 c2 175 0
208 -13 219 -35 29 2 88 49 76 33 -8 43 -46 22 -79 -14 -20 -16 -54 -14 -223
l3 -199 70 0 70 0 0 750 0 750 -173 3 c-132 2 -174 0 -177 -10z"/>
<path d="M3020 2671 c-75 -23 -125 -71 -149 -140 -7 -22 -11 -132 -11 -316 l0
-281 26 -52 c20 -41 37 -59 78 -82 l51 -30 451 0 c544 0 494 16 494 -154 0
-96 -3 -115 -18 -129 -16 -15 -71 -17 -528 -19 l-509 -3 0 -145 0 -145 630 -3
630 -2 45 22 c26 14 57 41 75 66 l30 44 3 300 3 301 -25 51 c-18 37 -38 59
-73 81 l-48 30 -460 3 c-406 2 -461 5 -477 19 -15 14 -18 33 -18 133 0 101 3
119 18 133 17 16 87 17 805 17 l787 0 2 -597 3 -598 175 0 175 0 5 595 5 595
255 0 255 0 5 -525 5 -525 735 -3 734 -2 43 42 c24 23 43 52 43 63 0 40 50 61
78 33 28 -28 0 -88 -42 -88 -9 0 -38 -20 -65 -45 l-48 -45 -739 -2 -739 -3 0
-45 0 -45 855 0 855 0 5 454 5 454 26 -39 c14 -21 88 -151 164 -289 77 -137
155 -278 174 -312 l35 -63 87 0 87 0 162 293 c89 160 179 319 199 352 l36 60
5 -455 5 -455 350 0 349 0 55 138 54 137 361 -2 361 -3 46 -119 c25 -66 51
-128 58 -138 11 -17 46 -18 834 -18 l822 0 45 24 c29 15 55 40 75 71 l30 48 3
276 c2 183 -1 291 -8 321 -16 63 -54 108 -114 136 l-51 24 -446 0 -446 0 -21
23 c-20 21 -22 34 -22 128 1 77 5 109 16 124 14 19 30 20 532 25 l517 5 0 60
0 60 -579 3 c-380 1 -583 -1 -590 -8 -14 -14 -49 -13 -64 2 -7 7 -12 24 -12
38 0 47 45 67 81 34 15 -13 83 -15 585 -15 312 0 572 5 576 9 5 5 8 33 6 63
l-3 54 -636 0 -635 0 -45 -29 c-95 -63 -97 -73 -98 -431 -1 -293 0 -301 22
-340 12 -21 42 -53 65 -70 l44 -30 463 -5 c437 -5 464 -6 484 -24 19 -17 21
-30 21 -131 0 -95 -3 -114 -18 -128 -16 -15 -71 -17 -528 -19 l-509 -3 -2
-110 c-2 -60 -6 -121 -9 -135 l-6 -25 -13 25 c-7 14 -128 333 -269 710 -141
377 -263 700 -271 718 l-15 32 -282 -2 -282 -3 -17 -45 c-10 -25 -63 -166
-118 -315 -189 -514 -353 -950 -366 -975 -10 -19 -15 -22 -19 -10 -3 8 -7 314
-9 680 l-2 665 -175 3 -175 2 -20 -32 c-11 -18 -38 -67 -60 -109 -22 -42 -123
-225 -225 -408 -173 -311 -185 -330 -201 -314 -14 16 -320 563 -421 753 -19
36 -41 75 -49 88 l-14 22 -2190 -1 c-1204 0 -2201 -4 -2215 -8z m2008 -103 c7
-7 12 -24 12 -38 0 -14 -5 -31 -12 -38 -15 -15 -54 -16 -63 -2 -4 7 -321 10
-918 10 l-911 0 -38 -37 c-21 -20 -38 -46 -38 -57 0 -24 -28 -56 -48 -56 -21
0 -52 29 -52 48 0 23 30 52 54 52 13 0 42 21 71 50 l49 50 907 0 c794 0 908 2
919 15 15 18 51 20 68 3z m4596 -280 c154 -403 196 -515 196 -525 0 -10 -53
-13 -234 -13 -129 0 -237 4 -240 8 -3 5 46 145 109 311 63 167 115 305 115
307 0 2 4 4 9 4 5 0 25 -42 45 -92z m-2554 -368 l0 -450 -502 2 -503 3 0 145
0 145 395 5 395 5 0 145 0 145 -395 5 -395 5 -3 134 c-1 74 0 141 2 148 4 10
104 13 506 13 l500 0 0 -450z"/>
<path d="M10973 1088 c-15 -20 -33 -79 -27 -89 9 -16 60 -10 76 9 23 26 48 79
41 86 -11 11 -80 6 -90 -6z"/>
<path d="M8930 898 c-19 -20 -20 -34 -20 -235 0 -285 -20 -263 248 -263 188 0
201 1 226 21 24 19 27 27 24 73 l-3 51 -53 3 c-48 3 -53 1 -62 -23 l-10 -26
-122 3 -123 3 0 155 0 155 123 3 122 3 10 -26 c9 -24 14 -26 62 -23 l53 3 3
52 c2 42 -1 56 -17 72 -20 20 -33 21 -231 21 -202 0 -210 -1 -230 -22z"/>
<path d="M9532 904 c-22 -15 -22 -19 -22 -239 l0 -224 26 -20 c25 -20 40 -21
226 -21 268 0 248 -21 248 258 0 197 -1 211 -21 236 l-20 26 -208 0 c-171 0
-210 -3 -229 -16z m353 -244 l0 -155 -119 -3 c-78 -2 -123 1 -132 9 -11 9 -14
44 -14 154 0 78 3 145 7 149 4 3 63 5 132 4 l126 -3 0 -155z"/>
<path d="M10115 907 c-3 -7 -4 -123 -3 -257 l3 -245 223 -3 223 -2 24 24 c23
23 25 33 25 108 0 66 -4 88 -19 108 -19 24 -19 25 0 48 15 20 19 41 19 104 0
70 -3 82 -25 103 l-24 25 -221 0 c-169 0 -222 -3 -225 -13z m373 -133 c4 -60
-7 -65 -144 -62 l-119 3 -3 39 c-6 67 -7 67 135 64 l128 -3 3 -41z m-3 -219
l0 -50 -124 -3 c-93 -2 -126 1 -133 10 -10 16 -11 82 -1 92 4 3 63 5 132 4
l126 -3 0 -50z"/>
<path d="M10865 903 c-4 -10 -34 -90 -66 -178 -33 -88 -73 -194 -89 -235 -15
-41 -25 -79 -20 -83 4 -5 31 -7 60 -5 52 3 53 3 70 48 l18 45 129 3 130 3 21
-51 21 -50 55 0 c30 0 57 3 59 8 4 7 -170 475 -186 500 -6 8 -38 12 -102 12
-79 0 -94 -3 -100 -17z m155 -195 c16 -44 30 -86 30 -94 0 -11 -18 -14 -80
-14 -94 0 -94 1 -54 101 50 125 48 121 61 103 7 -9 26 -53 43 -96z"/>
<path d="M11335 907 c-3 -7 -4 -123 -3 -257 l3 -245 55 0 55 0 3 158 c1 88 7
157 12 157 5 0 58 -64 117 -141 59 -78 115 -150 123 -161 13 -16 26 -19 70
-16 l55 3 0 255 0 255 -55 0 -55 0 -5 -160 -5 -160 -60 76 c-33 41 -90 114
-128 162 l-67 87 -55 0 c-36 0 -57 -5 -60 -13z"/>
<path d="M7167 904 c-4 -4 -7 -109 -7 -234 0 -293 -19 -270 224 -270 175 0
177 0 202 25 l24 24 -2 228 -3 228 -25 0 -25 0 -3 -209 c-1 -134 -6 -214 -13
-223 -16 -19 -292 -19 -308 0 -7 9 -12 89 -13 223 -3 202 -4 209 -23 212 -12
2 -24 0 -28 -4z"/>
<path d="M7725 898 c-3 -7 -4 -121 -3 -253 l3 -240 25 0 25 0 5 195 5 195 31
-50 c18 -28 55 -94 84 -148 61 -114 76 -133 96 -116 7 6 44 66 80 133 37 66
77 135 88 151 l21 30 5 -195 5 -195 25 0 25 0 0 250 0 250 -27 3 c-32 4 -39
-6 -144 -201 -38 -71 -76 -133 -85 -138 -14 -7 -33 22 -110 164 -84 152 -98
172 -122 175 -16 2 -29 -2 -32 -10z"/>
<path d="M8380 890 c-19 -19 -20 -33 -20 -233 0 -282 -20 -259 232 -255 233 4
220 -5 216 153 l-3 110 -90 0 c-89 0 -90 0 -90 -25 0 -24 3 -25 63 -28 l62 -3
0 -62 c0 -36 -5 -68 -12 -75 -17 -17 -289 -17 -306 0 -13 13 -18 331 -6 362 5
14 29 16 158 16 l153 0 11 -26 c9 -18 19 -24 35 -22 32 4 36 59 6 87 -21 20
-34 21 -206 21 -170 0 -184 -1 -203 -20z"/>
<path d="M1034 786 c-3 -7 -4 -35 -2 -62 l3 -49 841 -3 c739 -2 843 0 854 13
17 20 53 19 73 -3 22 -24 21 -35 -1 -55 -21 -19 -53 -22 -68 -7 -7 7 -298 9
-855 8 l-844 -3 0 -45 0 -45 2965 0 2965 0 0 130 0 130 -2963 3 c-2510 2
-2963 0 -2968 -12z"/>
</g>
</svg>
